G04*
G04 #@! TF.GenerationSoftware,Altium Limited,Altium Designer,21.2.2 (38)*
G04*
G04 Layer_Color=65535*
%FSLAX25Y25*%
%MOIN*%
G70*
G04*
G04 #@! TF.SameCoordinates,88FA53B8-33D6-4C0A-A806-AD2D67DBFD48*
G04*
G04*
G04 #@! TF.FilePolarity,Positive*
G04*
G01*
G75*
%ADD10C,0.00787*%
%ADD11C,0.00394*%
%ADD12C,0.00500*%
%ADD13C,0.01000*%
%ADD14R,0.03500X0.15500*%
D10*
X117055Y130323D02*
G03*
X117055Y130323I-394J0D01*
G01*
X58000Y211625D02*
Y219625D01*
Y204600D02*
Y211625D01*
X80500Y204600D02*
Y210975D01*
X58000Y220000D02*
X80500D01*
Y210975D02*
Y220000D01*
X58000Y204600D02*
X80500D01*
X130693Y63669D02*
Y72331D01*
X117307D02*
X130693D01*
X117307Y63669D02*
Y72331D01*
Y63669D02*
X130693D01*
X126157Y114701D02*
X136000D01*
X126157Y77299D02*
Y114701D01*
Y77299D02*
X145843D01*
Y114701D01*
X136000D02*
X145843D01*
X126157Y159701D02*
X136000D01*
X126157Y122299D02*
Y159701D01*
Y122299D02*
X145843D01*
Y159701D01*
X136000D02*
X145843D01*
X114000Y185583D02*
X123843D01*
Y158417D02*
Y185583D01*
X104157Y158417D02*
X123843D01*
X104157D02*
Y185583D01*
X114000D01*
X60000Y176000D02*
X66500D01*
X60000Y186000D02*
X66500D01*
X60000Y176000D02*
Y186000D01*
X43500Y171000D02*
X66500D01*
Y191000D01*
X43500D02*
X66500D01*
X43500Y171000D02*
Y191000D01*
X83811Y69157D02*
Y79000D01*
Y69157D02*
X110189D01*
Y88842D01*
X83811D02*
X110189D01*
X83811Y79000D02*
Y88842D01*
X61000Y62000D02*
X67500D01*
X61000Y72000D02*
X67500D01*
X61000Y62000D02*
Y72000D01*
X44500Y57000D02*
X67500D01*
Y77000D01*
X44500D02*
X67500D01*
X44500Y57000D02*
Y77000D01*
X60000Y120000D02*
X66500D01*
X60000Y130000D02*
X66500D01*
X60000Y120000D02*
Y130000D01*
X43500Y115000D02*
X66500D01*
Y135000D01*
X43500D02*
X66500D01*
X43500Y115000D02*
Y135000D01*
X95299Y104640D02*
Y112514D01*
X82701D02*
X95299D01*
X82701Y104640D02*
Y112514D01*
Y104640D02*
X95299D01*
X82764Y122563D02*
Y130437D01*
Y122563D02*
X95362D01*
Y130437D01*
X82764D02*
X95362D01*
X94512Y141850D02*
Y148150D01*
X83488D02*
X94512D01*
X83488Y141850D02*
Y148150D01*
Y141850D02*
X94512D01*
X81756Y185031D02*
Y188969D01*
X76244Y185031D02*
X81756D01*
X76244D02*
Y188969D01*
X81756D01*
X82669Y170370D02*
X91331D01*
Y183756D01*
X82669D02*
X91331D01*
X82669Y170370D02*
Y183756D01*
D11*
X165000Y35000D02*
Y235000D01*
X30000Y35000D02*
X165000D01*
X30000D02*
Y235000D01*
X165000D01*
X30000D02*
X165000D01*
X30000Y35000D02*
Y235000D01*
Y35000D02*
X165000D01*
Y235000D01*
D12*
X105677Y110559D02*
Y122370D01*
X117764Y110559D02*
Y122370D01*
D13*
X158293Y225700D02*
Y224388D01*
Y225044D01*
X154358D01*
Y225700D01*
Y224388D01*
Y222420D02*
X158293D01*
Y220452D01*
X157638Y219796D01*
X156326D01*
X155670Y220452D01*
Y222420D01*
Y221108D02*
X154358Y219796D01*
X156982Y211925D02*
Y213893D01*
X156326Y214549D01*
X155014D01*
X154358Y213893D01*
Y211925D01*
X158293Y210613D02*
X154358D01*
X156326D01*
X156982Y209957D01*
Y208645D01*
X156326Y207989D01*
X154358D01*
X156982Y206021D02*
Y204709D01*
X156326Y204053D01*
X154358D01*
Y206021D01*
X155014Y206677D01*
X155670Y206021D01*
Y204053D01*
X154358Y202742D02*
X156982D01*
Y200774D01*
X156326Y200118D01*
X154358D01*
Y198806D02*
X156982D01*
Y196838D01*
X156326Y196182D01*
X154358D01*
Y192902D02*
Y194214D01*
X155014Y194870D01*
X156326D01*
X156982Y194214D01*
Y192902D01*
X156326Y192246D01*
X155670D01*
Y194870D01*
X154358Y190934D02*
Y189622D01*
Y190278D01*
X158293D01*
Y190934D01*
X149859Y221764D02*
X147235D01*
X148547D01*
X149203Y221108D01*
X149859Y220452D01*
Y219796D01*
X147235Y215861D02*
Y217173D01*
X147891Y217828D01*
X149203D01*
X149859Y217173D01*
Y215861D01*
X149203Y215205D01*
X148547D01*
Y217828D01*
X149859Y211269D02*
Y213237D01*
X149203Y213893D01*
X147891D01*
X147235Y213237D01*
Y211269D01*
Y207989D02*
Y209301D01*
X147891Y209957D01*
X149203D01*
X149859Y209301D01*
Y207989D01*
X149203Y207333D01*
X148547D01*
Y209957D01*
X147235Y206021D02*
Y204709D01*
Y205365D01*
X149859D01*
Y206021D01*
Y202742D02*
X147235Y201430D01*
X149859Y200118D01*
X147235Y196838D02*
Y198150D01*
X147891Y198806D01*
X149203D01*
X149859Y198150D01*
Y196838D01*
X149203Y196182D01*
X148547D01*
Y198806D01*
X149859Y194870D02*
X147235D01*
X148547D01*
X149203Y194214D01*
X149859Y193558D01*
Y192902D01*
X143392Y223076D02*
X144048Y223732D01*
Y225044D01*
X143392Y225700D01*
X142736D01*
X142080Y225044D01*
Y223732D01*
X141424Y223076D01*
X140768D01*
X140112Y223732D01*
Y225044D01*
X140768Y225700D01*
X144048Y221764D02*
X140112D01*
X142080D01*
X142736Y221108D01*
Y219796D01*
X142080Y219140D01*
X140112D01*
X142736Y217828D02*
X140768D01*
X140112Y217173D01*
Y215205D01*
X139456D01*
X138800Y215861D01*
Y216517D01*
X140112Y215205D02*
X142736D01*
Y213893D02*
X140112D01*
X141424D01*
X142080Y213237D01*
X142736Y212581D01*
Y211925D01*
X140112Y209301D02*
Y207989D01*
X140768Y207333D01*
X142080D01*
X142736Y207989D01*
Y209301D01*
X142080Y209957D01*
X140768D01*
X140112Y209301D01*
Y206021D02*
X144048D01*
X141424D02*
X142736Y204053D01*
X141424Y206021D02*
X140112Y204053D01*
Y201430D02*
Y200118D01*
X140768Y199462D01*
X142080D01*
X142736Y200118D01*
Y201430D01*
X142080Y202086D01*
X140768D01*
X140112Y201430D01*
X142736Y198150D02*
X140112Y196838D01*
X142736Y195526D01*
X144048Y190278D02*
X141424D01*
X140112Y188966D01*
X141424Y187654D01*
X144048D01*
X140112Y186343D02*
X140768D01*
Y185687D01*
X140112D01*
Y186343D01*
X68500Y131500D02*
X72499D01*
X70499Y121000D02*
Y117001D01*
X72499Y119001D02*
X68500D01*
X70499Y177500D02*
Y173501D01*
X72499Y175501D02*
X68500D01*
Y188000D02*
X72499D01*
X89299Y215399D02*
Y219398D01*
X86300D01*
Y217398D01*
Y219398D01*
X83301D01*
X89299Y213400D02*
X83301D01*
Y210401D01*
X84301Y209401D01*
X88299D01*
X89299Y210401D01*
Y213400D01*
X83301Y207402D02*
Y205402D01*
Y206402D01*
X89299D01*
X88299Y207402D01*
X45003Y199999D02*
Y196000D01*
X47003Y194001D01*
X49002Y196000D01*
Y199999D01*
X55000Y198000D02*
X52001D01*
X51001Y197000D01*
Y195001D01*
X52001Y194001D01*
X55000D01*
X60998Y198000D02*
X57999D01*
X56999Y197000D01*
Y195001D01*
X57999Y194001D01*
X60998D01*
X62997D02*
X64997D01*
X63997D01*
Y199999D01*
X62997Y198999D01*
X118999Y139999D02*
X114001D01*
X113001Y138999D01*
Y137000D01*
X114001Y136000D01*
X118999D01*
X113001Y134001D02*
Y132001D01*
Y133001D01*
X118999D01*
X117999Y134001D01*
X43283Y144535D02*
Y140536D01*
X45282Y138536D01*
X47282Y140536D01*
Y144535D01*
X53280Y142535D02*
X50281D01*
X49281Y141535D01*
Y139536D01*
X50281Y138536D01*
X53280D01*
X59278Y142535D02*
X56279D01*
X55279Y141535D01*
Y139536D01*
X56279Y138536D01*
X59278D01*
X65276D02*
X61277D01*
X65276Y142535D01*
Y143535D01*
X64276Y144535D01*
X62277D01*
X61277Y143535D01*
X51002Y85999D02*
X49002D01*
X48003Y84999D01*
Y81001D01*
X49002Y80001D01*
X51002D01*
X52001Y81001D01*
Y84999D01*
X51002Y85999D01*
X54001D02*
Y81001D01*
X55000Y80001D01*
X57000D01*
X57999Y81001D01*
Y85999D01*
X59999D02*
X63997D01*
X61998D01*
Y80001D01*
X96501Y148998D02*
X102499D01*
Y145999D01*
X101499Y145000D01*
X99500D01*
X98500Y145999D01*
Y148998D01*
Y146999D02*
X96501Y145000D01*
X102499Y139002D02*
Y143000D01*
X99500D01*
X100500Y141001D01*
Y140001D01*
X99500Y139002D01*
X97501D01*
X96501Y140001D01*
Y142001D01*
X97501Y143000D01*
X84001Y167998D02*
X89999D01*
Y164999D01*
X88999Y164000D01*
X87000D01*
X86000Y164999D01*
Y167998D01*
Y165999D02*
X84001Y164000D01*
Y159001D02*
X89999D01*
X87000Y162000D01*
Y158002D01*
X149001Y147498D02*
X154999D01*
Y144499D01*
X153999Y143500D01*
X152000D01*
X151000Y144499D01*
Y147498D01*
Y145499D02*
X149001Y143500D01*
X153999Y141500D02*
X154999Y140501D01*
Y138501D01*
X153999Y137502D01*
X153000D01*
X152000Y138501D01*
Y139501D01*
Y138501D01*
X151000Y137502D01*
X150001D01*
X149001Y138501D01*
Y140501D01*
X150001Y141500D01*
X121001Y61498D02*
X126999D01*
Y58499D01*
X125999Y57500D01*
X124000D01*
X123000Y58499D01*
Y61498D01*
Y59499D02*
X121001Y57500D01*
Y51502D02*
Y55500D01*
X125000Y51502D01*
X125999D01*
X126999Y52501D01*
Y54501D01*
X125999Y55500D01*
X148001Y99499D02*
X153999D01*
Y96500D01*
X152999Y95500D01*
X151000D01*
X150000Y96500D01*
Y99499D01*
Y97499D02*
X148001Y95500D01*
Y93501D02*
Y91501D01*
Y92501D01*
X153999D01*
X152999Y93501D01*
X102499Y127000D02*
X103499Y127999D01*
Y129999D01*
X102499Y130998D01*
X98501D01*
X97501Y129999D01*
Y127999D01*
X98501Y127000D01*
X103499Y121002D02*
Y125000D01*
X100500D01*
X101500Y123001D01*
Y122001D01*
X100500Y121002D01*
X98501D01*
X97501Y122001D01*
Y124001D01*
X98501Y125000D01*
X131499Y174500D02*
X132499Y175499D01*
Y177499D01*
X131499Y178498D01*
X127501D01*
X126501Y177499D01*
Y175499D01*
X127501Y174500D01*
X126501Y169501D02*
X132499D01*
X129500Y172500D01*
Y168502D01*
X79999Y79000D02*
X80999Y79999D01*
Y81999D01*
X79999Y82998D01*
X76001D01*
X75001Y81999D01*
Y79999D01*
X76001Y79000D01*
X79999Y77000D02*
X80999Y76001D01*
Y74001D01*
X79999Y73002D01*
X79000D01*
X78000Y74001D01*
Y75001D01*
Y74001D01*
X77000Y73002D01*
X76001D01*
X75001Y74001D01*
Y76001D01*
X76001Y77000D01*
X77400Y195999D02*
X76401Y196999D01*
X74401D01*
X73402Y195999D01*
Y192001D01*
X74401Y191001D01*
X76401D01*
X77400Y192001D01*
X83398Y191001D02*
X79400D01*
X83398Y195000D01*
Y195999D01*
X82399Y196999D01*
X80399D01*
X79400Y195999D01*
X102499Y107500D02*
X103499Y108500D01*
Y110499D01*
X102499Y111499D01*
X98501D01*
X97501Y110499D01*
Y108500D01*
X98501Y107500D01*
X97501Y105501D02*
Y103501D01*
Y104501D01*
X103499D01*
X102499Y105501D01*
D14*
X78750Y212350D02*
D03*
M02*
